# xmcd
#
# Track frame offsets:
#	150
#	10505
#	26160
#	40808
#	55645
#	69500
#	82450
#	94778
#	107050
#	124790
#
# Disc length: 1821 seconds
#
# Revision: 0
# Processed by: cddbd v1.4PL0 Copyright (c) Steve Scherf et al.
# Submitted via: EasyCDDAExtractor 4.6.9.1
#
DISCID=7d071b0a
DTITLE=Merle Haggard - 5:01 Blues
DYEAR=1989
DGENRE=Country
TTITLE0=Broken Friend
TTITLE1=Losin' In Las Vegas
TTITLE2=5:01 Blues
TTITLE3=Someday We'll Know
TTITLE4=Wouldn't That Be Something
TTITLE5=Sea Of Heartbreak
TTITLE6=A Better Love Next Time
TTITLE7=If You Want To Be My Woman
TTITLE8=A Thousand Lies Ago
TTITLE9=somewhere down the line
EXTD=3
EXTT0=
EXTT1=
EXTT2=
EXTT3=
EXTT4=
EXTT5=
EXTT6=
EXTT7=
EXTT8=
EXTT9=
PLAYORDER=
